<svg width="29" height="22" viewBox="0 0 29 22" fill="none" xmlns="http://www.w3.org/2000/svg">
    <g filter="url(#58phxatyna)" fill-rule="evenodd" clip-rule="evenodd">
        <path d="M13.402 4.535c-1.201-.062-2.145-.11-3.539.587-.367.184-.703.444-1.036.701-.857.664-1.69 1.308-2.971.576-.672-.384-1.057-1.176-1.097-2.006-.04-.83.2-1.294.732-1.826.912-.912-.183-1.095-1.277-.364-1.094.73-3.466 3.284-.912 7.115 1.703 2.554 5.284 2.191 5.284 2.191s0 .183.365 1.278c.365 1.094.795 2.474.912 2.919.14.528.253.993.352 1.4.556 2.271.684 2.796 2.385 2.796h3.789c1.7 0 1.829-.524 2.384-2.795.1-.408.213-.873.352-1.401.117-.445.547-1.825.912-2.92.365-1.094.365-1.277.365-1.277s3.581.363 5.284-2.191c2.554-3.831.182-6.384-.912-7.115-1.094-.73-2.189-.548-1.276.364.531.532.771.997.731 1.826-.04.83-.425 1.622-1.097 2.006-1.28.732-2.113.088-2.97-.576-.333-.257-.67-.517-1.037-.7-1.393-.699-2.338-.65-3.538-.588a24.34 24.34 0 0 1-1.093.04 24.341 24.341 0 0 1-1.092-.04z" fill="#6B70ED"/>
        <path d="M13.402 4.535c-1.201-.062-2.145-.11-3.539.587-.367.184-.703.444-1.036.701-.857.664-1.69 1.308-2.971.576-.672-.384-1.057-1.176-1.097-2.006-.04-.83.2-1.294.732-1.826.912-.912-.183-1.095-1.277-.364-1.094.73-3.466 3.284-.912 7.115 1.703 2.554 5.284 2.191 5.284 2.191s0 .183.365 1.278c.365 1.094.795 2.474.912 2.919.14.528.253.993.352 1.4.556 2.271.684 2.796 2.385 2.796h3.789c1.7 0 1.829-.524 2.384-2.795.1-.408.213-.873.352-1.401.117-.445.547-1.825.912-2.92.365-1.094.365-1.277.365-1.277s3.581.363 5.284-2.191c2.554-3.831.182-6.384-.912-7.115-1.094-.73-2.189-.548-1.276.364.531.532.771.997.731 1.826-.04.83-.425 1.622-1.097 2.006-1.28.732-2.113.088-2.97-.576-.333-.257-.67-.517-1.037-.7-1.393-.699-2.338-.65-3.538-.588a24.34 24.34 0 0 1-1.093.04 24.341 24.341 0 0 1-1.092-.04z" fill="url(#8kbxg5ydmb)"/>
    </g>
    <defs>
        <linearGradient id="8kbxg5ydmb" x1="-.052" y1="8.398" x2="6.326" y2="23.325" gradientUnits="userSpaceOnUse">
            <stop stop-color="#A79DFF"/>
            <stop offset="1" stop-color="#6B70ED"/>
        </linearGradient>
        <filter id="58phxatyna" x=".866" y=".458" width="27.774" height="21.256" filterUnits="userSpaceOnUse" color-interpolation-filters="sRGB">
            <feFlood flood-opacity="0" result="BackgroundImageFix"/>
            <feColorMatrix in="SourceAlpha" values="0 0 0 0 0 0 0 0 0 0 0 0 0 0 0 0 0 0 127 0" result="hardAlpha"/>
            <feOffset dx=".259" dy=".259"/>
            <feGaussianBlur stdDeviation=".776"/>
            <feColorMatrix values="0 0 0 0 0 0 0 0 0 0 0 0 0 0 0 0 0 0 0.15 0"/>
            <feBlend in2="BackgroundImageFix" result="effect1_dropShadow_2995_43323"/>
            <feBlend in="SourceGraphic" in2="effect1_dropShadow_2995_43323" result="shape"/>
        </filter>
    </defs>
</svg>
