<svg width="195" height="107" viewBox="0 0 195 107" fill="none" xmlns="http://www.w3.org/2000/svg">
<path d="M9.59827 105.19C4.5022 105.636 -0.0366611 101.861 0.00290748 96.7459C0.0836871 86.3028 1.84203 75.9198 5.22916 65.9985C9.61595 53.1492 16.6381 41.3577 25.8458 31.3794C35.0536 21.4011 46.2439 13.4559 58.7 8.05274C71.1562 2.64958 84.6035 -0.0924147 98.1807 0.00237613C111.758 0.097167 125.166 3.02666 137.545 8.60321C149.925 14.1798 161.003 22.2804 170.07 32.3863C179.138 42.4923 185.995 54.3806 190.202 67.29C193.45 77.2575 195.063 87.664 194.998 98.1072C194.966 103.223 190.375 106.934 185.286 106.417V106.417C180.196 105.9 176.547 101.347 176.465 96.2321C176.339 88.3652 175.037 80.5435 172.588 73.0299C169.181 62.5733 163.627 52.9437 156.282 44.7579C148.937 36.5721 139.964 30.0106 129.937 25.4936C119.909 20.9766 109.049 18.6037 98.0514 18.5269C87.0538 18.4501 76.1615 20.6712 66.072 25.0477C55.9826 29.4243 46.9184 35.8599 39.4601 43.9423C32.0019 52.0248 26.3139 61.5759 22.7606 71.9838C20.2074 79.4626 18.7967 87.2653 18.5606 95.1297C18.407 100.243 14.6943 104.745 9.59827 105.19V105.19Z" fill="white"/>
</svg>
